<?xml version="1.0" standalone="no"?>
<!DOCTYPE svg PUBLIC "-//W3C//DTD SVG 20010904//EN"
 "http://www.w3.org/TR/2001/REC-SVG-20010904/DTD/svg10.dtd">
<svg version="1.0" xmlns="http://www.w3.org/2000/svg"
 width="700.000000pt" height="700.000000pt" viewBox="0 0 700.000000 700.000000"
 preserveAspectRatio="xMidYMid meet">
<metadata>
Created by potrace 1.11, written by Peter Selinger 2001-2013
</metadata>
<g transform="translate(0.000000,700.000000) scale(0.100000,-0.100000)"
fill="#000000" stroke="none">
<path d="M779 6996 c-2 -2 -26 -7 -53 -10 -27 -4 -52 -9 -56 -11 -4 -2 -17 -6
-31 -9 -115 -24 -257 -106 -368 -210 -128 -122 -199 -250 -258 -465 -4 -14 -9
-1257 -10 -2761 -2 -2433 -1 -2744 13 -2815 17 -85 68 -230 90 -256 8 -8 14
-19 14 -24 0 -20 96 -139 163 -201 119 -111 292 -197 452 -223 39 -6 1028 -9
2800 -8 l2740 2 74 23 c162 50 299 130 399 234 51 53 132 160 132 174 0 4 6
15 14 23 24 28 68 153 87 248 18 89 19 184 16 2820 -1 1500 -6 2744 -11 2763
-17 78 -66 204 -107 277 -59 106 -206 252 -312 312 -69 39 -187 86 -272 108
-30 8 -5508 17 -5516 9z"/>
</g>
</svg>
